# xmcd CD database file
#
# Track frame offsets:
#	150
#	19860
#	33541
#	46718
#	74432
#	87306
#	104665
#	114651
#	135353
#	150634
#	173452
#	193300
#	211538
#	239151
#
# Disc length: 3391 seconds
#
# Revision: 0
# Processed by: cddbd v1.4PL0 Copyright (c) Steve Scherf et al.
# Submitted via: CDex 1.50
#
DISCID=bd0d3d0e
DTITLE=Henrik Linnemann - journeys from nether edge
DYEAR=2001
DGENRE=Jazz
TTITLE0=millhouses mooch
TTITLE1=don valley engine
TTITLE2=stanage edge
TTITLE3=e.r. at the g.r.
TTITLE4=park cafe
TTITLE5=halcyon nights
TTITLE6=george yardley's place
TTITLE7=trip to trippets
TTITLE8=endcliffe park
TTITLE9=beetle to bakewell
TTITLE10=hold in the road blues
TTITLE11=forge dam groove
TTITLE12=goodbye mr kites
TTITLE13=endcliffe park (reprise)
EXTD=YEAR: 2001
EXTT0=
EXTT1=
EXTT2=
EXTT3=
EXTT4=
EXTT5=
EXTT6=
EXTT7=
EXTT8=
EXTT9=
EXTT10=
EXTT11=
EXTT12=
EXTT13=
PLAYORDER=
